<svg xmlns="http://www.w3.org/2000/svg" xmlns:xlink="http://www.w3.org/1999/xlink" width="300" height="300" viewBox="0 0 300 300"><defs><clipPath id="clip-path"><path d="M275,164a125,125,0,0,1-250,0C25,95,81-51,150-51S275,95,275,164Z" fill="none"/></clipPath></defs><title>customer-male-1</title><g id="Background"><rect width="300" height="300" fill="#fff"/><circle cx="150" cy="164" r="125" fill="#ffefcc"/></g><g id="Customers"><g clip-path="url(#clip-path)"><g id="Man_1" data-name="Man 1"><path d="M240,251.4c-.3-2.5-.7-5-1-7.5-2.3-19.1-5.5-43.1-17.6-58.9-2.6-3.3-5.2-6.6-9.3-4.8-2.5,1-5,3.5-7.2,5-4.8,3.5-11.7,7.7-14.3,13.3-5,10.9,3.6,21.6,8.9,30.6,2.8,4.7,5.6,9.5,8.3,14.3s1.8,11.5,2.2,18c.4,4.2.5,8.4.7,12.6A126.7,126.7,0,0,0,240,251.4Z" fill="#e0aa88"/><path d="M230.7,202.5c1.1,3.3,2.1,4.4.1,6.9-.7.9-2.3,1.7-3.1,2.4-3.4,2.8-6.5,5.8-9.6,8.8-5.3,5.4-10.5,11.9-11.3,19.8-2-3.8-4.3-7.5-6.5-11.3-.4-.6-3.9-5.6-3.8-6.3s6-3.7,6.7-4.1C212.2,213.4,221,206.5,230.7,202.5Z" fill="#53113f" opacity=".1" style="isolation:isolate"/><path d="M185.4,147.1c6,.2,12.4,2,15.4,4.1,14.5,10.2,22.5,33.8,29.9,49.5a4.8,4.8,0,0,1,.5,1.7,5,5,0,0,1-1.4,2.8,114.3,114.3,0,0,1-14.3,13.4c-3.6,3.9-5.9-2.2-11,.1a2.1,2.1,0,0,1-1.3.3c-.6-.1-.9-.6-1.2-1.1-5.8-9.6-9.9-19.8-15.2-29.7s-10.6-19.1-14.1-29.6S177.2,146.8,185.4,147.1Z" fill="#e2b0b0"/><path d="M213.3,272.5c.2-9.6.2-19.9.5-24,1.4-19.7,2.9-39.4,4.3-59.1,1.7-21.9-17.5-49.3-36.3-58.4-8.7-4.2-9.4,4.5-19.1,3.6s-18.4-17.4-27.4-14.4S99.7,147,93.7,152.4c-14.4,13.1-22.1,34.1-22.5,52.2s-.9,37.5-1.3,56.3a125,125,0,0,0,143.4,11.6Z" fill="#eab7b7"/><path d="M126.3,185.5c-2.2-.2-2.3-2.1-3.8.2.6,1.2,1.2,2.4,1.7,3.6l-2.2,3.2c-1.7,2.9-7,5.5-9.4,7.6-6.3,5.2-9.4,10.1-11,18.1-2.5,12-3.8,24.3-6.2,36.4a91.4,91.4,0,0,0-2.1,21.7,121.5,121.5,0,0,0,13.3,5.8C106.3,256.6,114.4,217.8,126.3,185.5Z" fill="#e2b0b0"/><path d="M103.3,268.2c.2-6.7-.1-13.7,1.1-20.3,1.6-8.8,4-17.5,6-26.2.9-3.9.9-3.3-2.8-4.3l-14.5-3.9-24.8-6.6c-2.2,14.7-5.1,29.5-6.1,44.3-.1.8-.1,1.7-.2,2.5a124,124,0,0,0,40.7,26.9Z" fill="#e0aa88"/><path d="M103.9,253c-1.7-4.4-3.5-10.3-6.9-13.6-6-5.9-15.2-7.4-21.7-12.8-1.2-1.2-7.3-6-8.3-8.3-.2-.4-.2-.6,0-.8h.1a69,69,0,0,0,10.3,5.7c3.2,1.2,7.8,3.4,11.2,3.3,6.8,1.5,13,2.5,19.7,4.1Z" fill="#53113f" opacity=".1" style="isolation:isolate"/><path d="M131.4,166.3c1.1-8.7-29.9-8.7-36.8-13.8-1.7-1.2-12,10.2-20.3,31.4-3.3,8.5-6.5,17.3-7.9,26.3-.9,5.8,0,7.9,4.8,11.9s12.2,7.4,18.8,9.8c4.8,1.8,10.9,4.6,16.1,4.9s3.3-1.9,4.8-6.3C117.9,210.4,128.3,190.5,131.4,166.3Z" fill="#eab7b7"/><polygon points="141.4 128.5 180.7 153.6 186 134.4 187.2 129.7 188.2 113 181.1 111.5 177 108.1 149.8 86 141.4 128.5" fill="#e0aa88"/><path d="M161.1,106.3s9,18.3,26.3,20.2l.8-13.5-7.1-1.5-4.1-3.4Z" fill="#c18b6f"/><path d="M145.6,101.1c6,2,12.6,3.4,17,7.4a30,30,0,0,0,16.2,7.2c6,.8,15.2,2.1,21-.5,12.8-5.6,9.2-27.5,11.3-38.5s4-18.4,2.1-28.7-2-14.4-12.5-13.7-22.8,3.8-34.4,4.6c-7.8.6-16.8.2-24.4,2-4.7,1.1-1.7-.6-3.7,2.6s-1.4,4.3-2.1,6.2c-1.7,5.1-2.2,6.4-.9,11.4C138.7,74.4,142.3,87.7,145.6,101.1Z" fill="#e0aa88"/><path d="M128.9,40.6c1.1-19.7,22.1-27.9,39.2-28,10.4-.1,20.7,2.4,31,3.7,5.8.7,17.3-2.6,19.7,3.7s-.1,18-6.1,23.1-14.1,4.1-21.9,2.8c-5.8-1-16.5-4.2-21.6.6S171.3,60,168,65.4s-17.6,0-22.1-1C135.2,62.1,128.4,51.2,128.9,40.6Z" fill="#492e1e"/><path d="M168,66.7c-.3,2.1-2.2,3.2-2.9,5.1s-.1,7.2-2.5,8.7c-9.1,5.5-8.1-10.6-15.5-7.6-2.8,1.1-2.8,3.8-2.6,6.6.2,4.8,4.7,4.9,5.6,8,1.8,5.8-4,15.1-4.2,17.9-2-16.9-22-35.2-12.1-52.5-.9,1.5,5.3,6.6,6.2,7.2,4.9,3.2,9.7,3,15.1,1.4C162.9,59.2,169.8,54.5,168,66.7Z" fill="#492e1e"/><ellipse cx="192" cy="73.6" rx="1.9" ry="2.5" transform="translate(-6.1 18.4) rotate(-5.4)" fill="#252525"/><ellipse cx="206.6" cy="72.3" rx="1.9" ry="2.5" transform="translate(-5.9 19.7) rotate(-5.4)" fill="#252525"/><path d="M179.8,67.1a10.2,10.2,0,0,1,3.5-3,15.7,15.7,0,0,1,4.3-1.5,13.6,13.6,0,0,1,4.5,0,10.9,10.9,0,0,1,4.3,1.4h-4.3a30.1,30.1,0,0,0-4.2.5,30.6,30.6,0,0,0-4.1,1A25.6,25.6,0,0,0,179.8,67.1Z" fill="#492e1e"/><path d="M202.5,63.3a5.6,5.6,0,0,1,2.1-1.6,6.3,6.3,0,0,1,2.7-.6,6,6,0,0,1,4.8,2.3l-2.5-.3H205Z" fill="#492e1e"/><path d="M194.5,93.9h5.7a3.8,3.8,0,0,1,3.8,3.8v3.5a0,0,0,0,1,0,0H190.7a0,0,0,0,1,0,0V97.6a3.8,3.8,0,0,1,3.8-3.8Z" transform="translate(394.7 194.9) rotate(180)" fill="#fff"/><path d="M199.9,68.1c2.5,5.9,5.7,10.8,7.2,16.8a4,4,0,0,1,0,1.1,1.3,1.3,0,0,1-1,.6,12.3,12.3,0,0,1-6.6,0" fill="none" stroke="#2d1727" stroke-linecap="round" stroke-miterlimit="10" opacity=".4"/><path d="M197.4,41a31.3,31.3,0,0,0,6.3-.6c8.6-1.9,10-16,10-16s-2.6,11-10.7,12.8-27.1.6-27.1.6S187.9,41,197.4,41Z" fill="#69422b"/><path d="M138.6,56.6a65.7,65.7,0,0,1-1.5-16.5A29.1,29.1,0,0,1,142,25.7a17.6,17.6,0,0,0-8.1,14.2A27.6,27.6,0,0,0,138.6,56.6Z" fill="#69422b"/><path d="M144.8,109.9h-1.1c-.9-.8,1.6-.9.6-.2s-11.2,7.5-9.8,11.6l17.3,39.2,20.9-12.1S158.5,137.2,144.8,109.9Z" fill="#eee"/><path d="M186.2,161.4l-13.9-12.8,8-6.5a19.3,19.3,0,0,0,6.1-8.9l.7-2.4,1.4,1.3,2.8,7a10.2,10.2,0,0,1,.1,7.1l-1.6,4.7Z" fill="#eee"/></g></g><polygon points="131.4 211.4 145.2 214.1 157 209.7 154.9 188.4 129.6 189.5 131.4 211.4" fill="none" stroke="#c69e8d" stroke-miterlimit="10" stroke-width=".75" stroke-dasharray="2 2"/><polygon points="129.6 190.9 154.9 189.4 154.9 185.8 129.2 186.9 129.6 190.9" fill="#e8e9ea" stroke="#e8e9ea" stroke-miterlimit="10"/></g><g id="Rulers"><path d="M220.7,0C253.5,48.8,275,121.2,275,164a125,125,0,0,1-250,0C25,121.2,46.5,48.8,79.3,0H0V300H300V0Z" fill="#fff"/></g></svg>