<svg xmlns="http://www.w3.org/2000/svg" xmlns:xlink="http://www.w3.org/1999/xlink" width="300" height="300" viewBox="0 0 300 300"><defs><clipPath id="clip-path"><path d="M275,164a125,125,0,0,1-250,0C25,95,81-51,150-51S275,95,275,164Z" fill="none"/></clipPath></defs><title>customer-female-4</title><g id="Background"><rect width="300" height="300" fill="#fff"/><circle cx="150" cy="164" r="125" fill="#ffefcc"/></g><g id="Customers"><g clip-path="url(#clip-path)"><g id="Woman_7" data-name="Woman 7"><path d="M108.6,641.4S88.8,407.3,88.8,368.6c-.1-33.7,10.8-62.1,28.3-70l75.7,18.9-9.1,13.4L167.9,363s-25.2,224-30.1,277.8Z" fill="#2f3666"/><path d="M149.3,139.2c-1.7,8.8-7.1,13.1-15.1,16.6a66,66,0,0,1-11.4,3.7c-3.5.9-4.3-.4-7.4-1.3s-6.8-1.3-10-3.5a13.7,13.7,0,0,1-5.7-9.6c-.6-8.2,7.4-11.5,13.8-13.6-8.6-6.8-8.5-20.6,1.6-26.1-6.7-5.8-10.3-14.9-10.9-23.5a34.6,34.6,0,0,1,1.4-12.8c1.7-5.3,5.1-10.1,5.8-15.7a174.9,174.9,0,0,1,31.9,37.8c4.1,6.6,7.3,13.8,8.2,21.7S150.9,130.6,149.3,139.2Z" fill="#291d29"/><path d="M193.4,154.1c-2.7,1.8-5.1,4-7.8,5.9-9.1,6.7-19,19.7-31.6,17.5s-23.3-12.5-32.6-19.7c-4.5-3.5-6.4-4.9-1.1-8.7s9.5-7.4,12.4-13.5c6.1-12.7,8-28,6.8-41.9.2,2.9,9.2,6.8,11.5,8.3a79.2,79.2,0,0,0,12.4,7c4.1,1.6,8.4,1.7,9.4,6.2a11,11,0,0,1,.2,1.8c-.1,2.5-.8,5.5-.6,7.9a21.6,21.6,0,0,0,3,9.6h.1C179.9,141.4,187.3,148.6,193.4,154.1Z" fill="#ffab91"/><path d="M175.5,134.6a56.7,56.7,0,0,1-5.7-1c-8.3-1.9-16.4-6.7-21-14.6-1.1-2-5.3-9.6-3.6-11.4s9.5-.1,11.8.5c5.8,1.6,11,5.2,16,8.9-.1,2.5-.8,5.5-.6,7.9a21.6,21.6,0,0,0,3,9.6Z" fill="#291d29" opacity=".3"/><path d="M191.9,81.3a88.9,88.9,0,0,1-1.3,10.2c-.4,1.9-1,3.7-1.4,5.6l-.3.9c-.5,2.2-.9,4.3-1.5,6.4a74,74,0,0,1-5.2,11.9l-.8,1.4a6.9,6.9,0,0,1-6.9,3.2c-32.5-3.9-41-26.5-48-44.5-.6-1.3-3.3-6.5-2.8-7.8l15.2-34s37.2,3.4,50.5,24.7a36.6,36.6,0,0,1,2.8,5.6v.3A108.5,108.5,0,0,1,191.9,81.3Z" fill="#ffab91"/><path d="M162.5,62.6s-11.4.1-16,3.8C146.5,66.5,151.4,56.5,162.5,62.6Z" fill="#424242"/><polygon points="171 67.2 176.8 88.4 176.5 90.5 168.4 88.9 171 67.2" fill="#ffab91"/><path d="M169.5,91.3c9.3-1.8,7.3-2.7,4.8-12-1.8-6.7-6.1-16.1,4-18.5" fill="none" stroke="#424242" stroke-miterlimit="10" stroke-width=".75"/><path d="M173.8,62.9s6.8-8.8,16.5-.6" fill="#424242"/><path d="M173.5,104.4h.6a7.1,7.1,0,0,0,6.6-7.6V95.6l-14.9,1v1.2A7.1,7.1,0,0,0,173.5,104.4Z" fill="#fff"/><path d="M194.4,74c.9,4.4-1.6-.7-4.9-1.4-5-1.1-8.7-6.1-12.1-9.6-7.3-7.8-15.6-17.2-26.9-18.4.7,5.9-3.6,11.6-7,15.9s-8.2,7.7-8.6,13.1,4.3,11.4,5.7,17,.7,13.9-1.3,20.2c-3.5-6.5-10-10.4-15.8-14.6a46.9,46.9,0,0,1-15.2-17.6c-6.8-13.8-6-31.5,4.7-43.2,5.8-6.4,14.2-10.1,21.3-14.8s14.2-9.7,23-9.7,16.6,4.4,22.3,10.6c2.5,2.8,4.7,5.9,7,8.8s5.9,6.2,8.1,9.8c5.2,8.3,6.5,18.2,5.3,27.7a71.1,71.1,0,0,1-3.8,15.1c-1.7,4.5-5.9,8.7-6.8,13.4,1.5-7.2-.4-15.2,2-22.1C192.3,71.5,192.3,75.9,194.4,74Z" fill="#291d29"/><circle cx="131.2" cy="89.1" r="2.3" transform="translate(-6.1 9.7) rotate(-4.1)" fill="#fff"/><ellipse cx="159.5" cy="74.7" rx="2" ry="2.4" transform="translate(-10.8 29.9) rotate(-10.4)"/><ellipse cx="180.8" cy="75.3" rx="2" ry="2.4" transform="translate(-10.6 33.7) rotate(-10.4)"/><path d="M148,33.4a12.7,12.7,0,0,1,6.5-2.8,14.3,14.3,0,0,1,7.3,1.4,19.8,19.8,0,0,1,6,4.4,30.5,30.5,0,0,1,4.5,5.7c2.5,4,4.6,8.1,7.3,11.7s6.3,6.5,10.9,7.5a12.7,12.7,0,0,1-6.9-1.5,22.9,22.9,0,0,1-5.9-4.3c-3.3-3.6-5.7-7.8-8.1-11.5a58.2,58.2,0,0,0-4-5.4,20,20,0,0,0-5-4.2,11.9,11.9,0,0,0-6-2A11.8,11.8,0,0,0,148,33.4Z" fill="#fff" opacity=".1"/><path d="M145.3,37.2a2,2,0,0,0-2.5.5,3.1,3.1,0,0,0-.5,1,5.6,5.6,0,0,0,0,1.3,18,18,0,0,0,.7,2.7c.3,1.1.4,2.1.6,3.2a20.4,20.4,0,0,1-2.8,12.5,19,19,0,0,1-4.1,4.8c-1.6,1.4-3.1,2.7-4.4,4a17,17,0,0,0-3.5,4.5,8.7,8.7,0,0,0-.9,5.5c-1.1-1.7-1-4-.6-6.2a16.3,16.3,0,0,1,3.1-5.6c2.7-3.3,5.8-5.7,7.7-8.8A21.1,21.1,0,0,0,141.2,46a12.9,12.9,0,0,0-.1-2.8c0-1-.3-2.1-.2-3.2a8.5,8.5,0,0,1,.4-1.7,2.2,2.2,0,0,1,1.2-1.3,3.1,3.1,0,0,1,1.6-.6A1.7,1.7,0,0,1,145.3,37.2Z" fill="#fff" opacity=".1"/><path d="M198,37.1c-.1-.7-.1-1.4-.2-2a3,3,0,0,1-.2-1.3.9.9,0,0,0-.6-.7l-2.2-.2H187l-3.5.2c-1.8.2-3.3.3-4.7.6a23.3,23.3,0,0,0-3.6.8l-1.8.4-3.1,1.1L167,37.3h-.1a9.7,9.7,0,0,1-3.4.6h-.4l-1.5-.2c-1.4-.3-2.8-.8-4.2-1a18.4,18.4,0,0,0-3.3-.3l-3.3-.2h-1.2c-1.6.1-3.1.1-4.6.3h-.3l-6.8,1H137l-1.5.3-3.7.9-.6.2a.7.7,0,0,0-.4.6,13,13,0,0,0,.2,3.4,1.1,1.1,0,0,0,.8,1.1,2.4,2.4,0,0,1,1.2,1.4,1.7,1.7,0,0,1,.2.5c.5,1.2.9,2.3,1.3,3.5a27,27,0,0,0,1.4,4,12,12,0,0,0,1.8,3.1l.2.3a6.3,6.3,0,0,0,2.3,1.7l.7.2a8.4,8.4,0,0,0,3.1.5h.1a23.7,23.7,0,0,0,5.3-.4,22.1,22.1,0,0,0,3.5-.8,11.5,11.5,0,0,0,6.2-4.7,15.9,15.9,0,0,0,1.8-3.7h.1l1.2-3.8a22.9,22.9,0,0,1,.7-2.8A1.5,1.5,0,0,1,164,42a4,4,0,0,1,1.5-.3,2,2,0,0,1,1.7,1.5h.1c.5,1.3,1,2.5,1.6,3.8a18.9,18.9,0,0,0,4.9,6.4l1.2.8h0a7.9,7.9,0,0,0,3,1.2l1.5.2,1.9.2a16.1,16.1,0,0,0,3.8-.1h1.5a13.4,13.4,0,0,0,5.1-1.7,6.5,6.5,0,0,0,2.5-3,15.6,15.6,0,0,0,1-3.7,27,27,0,0,0,.4-2.8,7.7,7.7,0,0,1,.2-1.5,15.3,15.3,0,0,1,.7-3.6,1.8,1.8,0,0,1,1-1.4A.9.9,0,0,0,198,37.1Zm-64.7,4.2Zm25.6-.1a8.6,8.6,0,0,1,.5,2.3,18.1,18.1,0,0,1-.4,4,3,3,0,0,0-.2,1,14.9,14.9,0,0,1-2.4,4.9,7,7,0,0,1-2.2,2,11.4,11.4,0,0,1-3.5,1.3l-2.3.4a14.3,14.3,0,0,1-2.9.3h0a15.3,15.3,0,0,1-3-.3l-1.3-.4a5.3,5.3,0,0,1-1.4-1.2,4.2,4.2,0,0,1-.9-1.4,4.7,4.7,0,0,1-.5-1,14.2,14.2,0,0,1-1.2-4,8.3,8.3,0,0,1-.3-2.2c-.1-.7-.1-1.3-.2-1.9a6.9,6.9,0,0,1,.4-2.5,2.9,2.9,0,0,1,.7-1.2,6.5,6.5,0,0,1,1.6-.9l.7-.2,1.3-.4,1.2-.3,3.9-.7h1.8a27.9,27.9,0,0,1,5,.1,15.7,15.7,0,0,1,3,.5h.3l.7.3h.1A2.6,2.6,0,0,1,158.9,41.2Zm33.9-.6a22.5,22.5,0,0,1,0,5.8,12.3,12.3,0,0,1-.8,3.8,4.5,4.5,0,0,1-3.2,3.1,17.4,17.4,0,0,1-4.2.8h-2a23.2,23.2,0,0,1-3.8-.5l-1-.2a9.5,9.5,0,0,1-3.1-2.1,19.1,19.1,0,0,1-3.5-6.2h0a3,3,0,0,1-.4-1,10.9,10.9,0,0,1-.4-2.6h0v-.7a3.2,3.2,0,0,1,.3-1.4,4.5,4.5,0,0,1,2.2-1.9l3-1a37.3,37.3,0,0,1,4.6-.9,57.2,57.2,0,0,1,5.8-.2l3.2.4h.4a3.4,3.4,0,0,1,2.1,1.6,5.2,5.2,0,0,1,.6,1.6h0A6.8,6.8,0,0,1,192.8,40.6Z" fill="#ff5252"/><path d="M113.3,131.3h1.6a33.8,33.8,0,0,1,4.5.1c1.5,0,3,.2,4.4.3l4.6.4-2.2-.7-2.2-.6a34,34,0,0,0-4.6-.6,36.2,36.2,0,0,0-4.6.2l-2.2.4Z" fill="#fff" opacity=".1"/><path d="M128.3,103.8l-3.4.2-3.3.4a27.4,27.4,0,0,0-6.4,1.7,17,17,0,0,0-3.5,1.9,14.6,14.6,0,0,1,3.4-2.6l-.4-.3h.1a22.4,22.4,0,0,1,6.7-1.5h3.4Z" fill="#fff" opacity=".1"/><path d="M180,169.5a15.5,15.5,0,0,0-8.8,22.7L218.5,273a28.1,28.1,0,0,0,25,13.8l23.9,20-27.7-57.2-33.4-69a21.6,21.6,0,0,0-25.7-11.2Z" fill="#dfaa88"/><path d="M212.8,335.1c6.6-9.8,2.8-20.4-.6-40.1-4.6-27.3.9-59.3.6-62.5-.8-8-3.5-16.2-5.3-24-1.1-4.4-2.1-8.8-3.1-13.1-.6-2.7-2.5-6.8-1.5-9.5s5.3-5.4,7.5-7.2,6-4.7,9-7.1l-22.8-17.3c-3.1-2.3-14.7-14.1-18.3-14.1-9.4.1-22.1,6.5-31.5,6.6l-13.9.2c-3.3,0-1.2-5.2-4.3-4s-12,8.1-14.8,9.6-6.8,3.5-10.2,5.2c-5.3,2.6-3.9,6.2-8,10.7s-9.6,11.7-7.7,17.6c2.5,7.9,4.5,15.9,6.6,23.9s-3,47.5,5.2,77.6c6,22.1-12.2,29,0,46.2a163.8,163.8,0,0,0,44.3,14C169.2,351.8,195.5,345.6,212.8,335.1Z" fill="#4f2d51"/><path d="M108.9,263.2c.9,18.1,16.2,61.2,16.2,61.2s-14.2-6-20.8-17.6c-7.5-13.3-7.4-33-8.6-43.6-2.2-19.9,14.8-78.3,14.8-78.3S107.9,242.8,108.9,263.2Z" opacity=".2"/><path d="M253,277c-3-12.5-19.7-74.1-22.6-84.9-5.9-22.4-17.2-29-39.2-24.1,4.4,20.7,10.8,41.7,13.4,62.7,1,8.8.3,13.7-3.8,21.3-.9,1.8,14.3,36.9,12.9,38.8C228.8,284.5,242,288.8,253,277Z" fill="#4f2d51"/><path d="M216,298c-2.6,18-29,58.7-29,58.7s14.8-4.6,22.4-15.5c8.8-12.5,10.6-32.1,12.8-42.6,4.1-19.6-7.2-79.3-7.2-79.3C219.1,280.5,219.9,271.4,216,298Z" opacity=".2"/><path d="M153.8,346.8,165.7,359c-9.3,7.8-32.5-5.2-39.6-11.6-12.9-11.7-26-22.6-39.8-33.4-11.9-9.3-32.7-17-34.1-33.7-.5-5.5,4.5-19.9,5.9-25,7.5-26.6,15.4-44.7,22.8-71.3,1.1-3.9,1.9-7.9,4.7-11,7.6-8.4,19.9-5.4,26.2,2.8,8.6,11.3,2,23.8-2.2,35.1L93.7,254.5c-1.2,3.4-4.8,9.4-4.7,13.1,0,1.8-6.8,8.5-5.5,10.2,14.9,19.4,37.8,32.9,52.8,52.2Z" fill="#ffab91"/><path d="M133.3,322.2c0-.4-3.9-3.1-11.3-12.2-3.1-3.9-35.7-32.7-35.7-33.9-.1-3.7,18.9-35.2,24.2-49.7,4.1-11.4,9.9-39.3,1.3-50.6-6.3-8.2-18.6-11.2-26.2-2.8-2.8,3.1-38.1,64.6-35.7,105,1.3,21.7,37.2,44.2,43.8,49.4,13.8,10.9,19.3,15.4,20.9,15.7S133.3,323.5,133.3,322.2Z" fill="#4f2d51"/><path d="M280.4,327.1c-.5-4.8-4.1-8.3-6.9-12a113.8,113.8,0,0,0-15.3-16.5,3.7,3.7,0,0,0-2.5-1.2l-.6.3a1.3,1.3,0,0,0-.2.9c.4,3.2,3.1,5.6,4.7,8.3s3.6,6.6,6,9.3a86.3,86.3,0,0,0-11.5-12.7c-.4-.3-.9-.7-1.4-.5s-.4.7-.4,1.1a8.7,8.7,0,0,0,1.6,4.4l2.8,4.4c1.8,3.4,3.4,7.1,5.6,10.2l-3.5-5c-2.1-2.9-4.2-5.9-7.1-8.1-.5-.4-1.1-.7-1.5-.3s-.2.3-.3.5.3,3.1,1.1,4.5c2.7,4.8,6.3,9,8.8,13.9a65.2,65.2,0,0,0-8.7-10.2c-.6-.7-1.5-1.3-2.3-1a1.8,1.8,0,0,0-.8,1.5,3.4,3.4,0,0,0,.5,1.7c2.6,6.3,5.3,12.6,7.9,18.8,1.4,3.2,4.4,5.5,7.6,6.9,8.5,3.4,14.9-5.8,16.1-12.9A19.9,19.9,0,0,0,280.4,327.1Z" fill="#ffab91"/><path d="M136.2,244.6c6-27.5-2.1-45.4-12.6-59.4-4.1-5.4-12.4-10-9.5-20.3,1.7-5.7,7.8-7.7,10.2-12,10.8-18.5-6.5-8.2-11.9-10.1-21.1-7.7-33.7,39.7-18.5,65.6,21.7,37.2,21.3,21.1,34.1,55.2l6.1,1.1A85.3,85.3,0,0,1,136.2,244.6Z" fill="#291d29"/><polygon points="133.5 135.2 130.4 137.9 133.1 149.3 159.4 166.5 163.3 171.7 166.9 165.8 178.2 145.5 177.6 138 166.3 136.5 133.5 135.2" fill="#ffab91"/><path d="M173.3,163.7a10.2,10.2,0,0,1,7.9,1.8,10.4,10.4,0,0,1,4.1,6.8,67.6,67.6,0,0,0-7.7-27.7c.4,4.3-1.2,8.6-3.5,12.2s-4.6,5.2-6.5,8-.2,1.5,1.4.6A17.5,17.5,0,0,1,173.3,163.7Z" fill="#130f51" opacity=".1"/><path d="M167.6,162.3c-1.6,2.6-3,6.7-4.3,9.4,3.1-4.2,7.7-10.3,13-11.4s10.3,3.3,12.4,7.7c-2.3-6.9-4.7-13.8-6.9-20.8-1.5-5-.9-11-6.6-13.1.6,5.2,1.2,9.8-.6,14.9S170.2,157.9,167.6,162.3Z" fill="#efefef"/><path d="M146.9,167.5a16.7,16.7,0,0,0-3.7,6.3l-2.1,5c-2.9-6.1-4.2-12.6-8.5-17.9-2.9-3.6-6.9-6.9-7.4-11.5-.3-2.2.9-5,3.2-5.2-.9.1,3,8.1,3.4,8.8a16,16,0,0,0,7.8,6c1.9.6,3.8.8,5.7,1.5s8.9,3.6,8.5,4.9-2.3.3-2.7.4A7.8,7.8,0,0,0,146.9,167.5Z" fill="#130f51" opacity=".1"/><path d="M132.3,140.5c-.1,3.5,3,5.9,5.6,7.8s7.3,5,10.8,7.7c5.2,3.9,13,8.9,14.6,15.7-4.1-3.7-10.8-8.7-16.6-8.4s-7.9,8.3-8.5,13c1.1-9.7-7-16.7-10.8-24.8-1.5-3.2-1.8-6.2-.3-9.4s2.7-6.2,5.4-6C132.4,137.5,132.3,139.1,132.3,140.5Z" fill="#efefef"/></g></g></g><g id="Rulers"><path d="M220.7,0C253.5,48.8,275,121.2,275,164a125,125,0,0,1-250,0C25,121.2,46.5,48.8,79.3,0H0V300H300V0Z" fill="#fff"/></g></svg>