<svg version="1.1" id="Layer_1" xmlns="http://www.w3.org/2000/svg" xmlns:xlink="http://www.w3.org/1999/xlink" x="0" y="0" viewBox="0 0 300 300" xml:space="preserve" enable-background="new 0 0 300 300"><style type="text/css">.st0{fill:#fff}.st1{fill:#ffefcc}.st2{fill:#b67d76}.st3{fill:#010000}.st4{fill:#340415}.st5{fill:none;stroke:#5e403d;stroke-miterlimit:10}.st6{fill:#fffefb}.st7{fill:#93655f}.st8{fill:#dfaa88}.st9{fill:#1dc1a5}.st10{fill:#f6b01f}.st11{fill:#d89f21}.st12{fill:none;stroke:#fff;stroke-width:1.37;stroke-miterlimit:10}.st13{fill:#291d29}.st14{fill:none;stroke:#291d29;stroke-miterlimit:10}.st15{fill:#d32f2f}.st16{opacity:.1}</style><g id="Background"><rect x="1" y="2" class="st0" width="300" height="300"/><circle class="st1" cx="150" cy="164" r="125"/></g><g id="Customers"><g><g id="Woman_3"><path class="st2" d="M194,62.7c0,0,3.5,22,1.6,44.3s-16.2,38-26.2,38s-27.6-13.3-33.1-29.8c0,0-10-3.6-10.8-14.6 s10.1-9.7,13.5-3.6c-1.1-11.9,1.6-23.9,7.6-34.3C156.6,45.5,189.1,49.4,194,62.7z"/><ellipse class="st3" cx="159.1" cy="99.4" rx="2" ry="2.8"/><ellipse class="st3" cx="184.3" cy="99.4" rx="2" ry="2.8"/><path class="st4" d="M182.3,89c2.1-0.8,4.3-1.3,6.6-1.3c1.8-0.1,3.7,0.2,5.4,0.7c0,0-1.3-2.4-5.4-2.4 C186.4,86.1,184,87.2,182.3,89z"/><path class="st4" d="M150.9,87.3c2.1-0.8,4.4-1.1,6.6-1.1c1.9,0.1,3.7,0.4,5.5,0.9c0,0-1.3-2.4-5.4-2.6 C155.1,84.5,152.6,85.5,150.9,87.3z"/><path class="st5" d="M178.9,93.3c0,0-3.4,3.4-3.8,7.3s3.3,8.1,5.3,10.8s1.9,3.9-3.4,6.2"/><path class="st6" d="M166.2,121.9h15.9c0.1,0.6,0,1.1-0.3,1.6c-0.3,0.5-2.9,4.8-7.2,4.9s-8.4-5.4-8.4-5.4 S165.9,122.3,166.2,121.9z"/><path class="st2" d="M132.7,113.3c0,0,3.8,15.4,2,24.3s-21.5,26.9-39.8,32.3c0,0,31.6,33.3,64.9,32.9s23.4-28.5,23.4-28.5l2.2-4 c0,0-16.2-7.3-20.2-12.9c-2.7-3.8-3-14.1-3-14.1l-25.4-29C136.8,114.3,134,112.9,132.7,113.3z"/><path class="st7" d="M135.2,114.3c0,0,1.7,7.5,9.1,19.8c4.3,7.4,10.9,13.2,18.7,16.6c-0.7-2.4-0.9-4.9-0.8-7.4 C150.9,136.1,141.6,126.1,135.2,114.3z"/><path class="st8" d="M139,97c0-0.1,0-0.2-0.1-0.3L139,97z"/><path class="st2" d="M136.3,115.2c0,0,4.2-5.6,2.7-18.2c-3.4-6.1-14.2-7.4-13.5,3.6S136.3,115.2,136.3,115.2z"/><path class="st7" d="M130.8,97.9c0,0,2.7-0.5,2.9,0.4s-2.4,0.6-2.9,1.4s-0.2,2.7,1.9,3.7s1.3,4.6-1.3,3.5S127.2,101,130.8,97.9z"/><circle class="st9" cx="133.6" cy="109.8" r="2.5"/><circle class="st9" cx="133.6" cy="109.8" r="2"/><path class="st2" d="M182.7,189.2c-7.9,2.4-12.3,10.7-9.9,18.6c0.3,1.1,0.8,2.2,1.4,3.2l32,88.2c5,8.4,27.7,3,37.5,2.7L227,275.2 l-20.5-78.7c-4.4-9.2-13.5-10.4-23.3-7.5L182.7,189.2z"/><path class="st10" d="M229.6,385c-32.2,15.1-69.7,21.1-104.1,10.4c-9.8-3-19.6-5.8-29.3-8.6c-2.8-0.9-13-2.1-14.4-4.3 s2.4-12.5,3-15.6c2.2-9.5,7.2-18.4,11-27.3s8.3-19.1,12.4-28.6c2.3-5.3,6.1-11.1,6.1-16.9c0.2-13.3-6.4-28.2-10.8-40.5 c-2.4-6.8-5.4-12.7-5.8-19.8c-0.7-9.9-1.1-19.7-1.6-29.6c-0.3-6.6-0.5-13.1-0.7-19.7c-0.1-3.3-1.1-8.7,0.1-11.9s8-7.4,11-8.5 c6-2.2,9.9,2.2,13.5,6.4c9.5,11.3,21.9,16.5,36.7,15.2c6.3-0.5,13.5-1.9,18.6-5.8c1.4-1,8.8-9.6,5.1-11.9c4.6,1.6,8.5,2.9,12,6.2 s6,5.2,8.9,9.8c1.7,2.9,4.1,7.1,4.8,10.4c0.5,2.9,0.7,5.9,0.3,8.8c-1.7,14.8,3,15.8,1.9,29.4c-0.8,10.5-5.7,36.3-6.6,46.8 c-0.3,4.3-1.5,9.5-1,13.8s3.1,9.8,4.5,14.3l9,28.6L229.6,385z"/><path class="st11" d="M113.7,211.3c-5.3,23.5-1.3,68.5-1.3,68.5l-13.1-37.6l-7.4-26.5L113.7,211.3z"/><path class="st12" d="M116.2,370.1l-38.7-2.5l-2.7-165.2c-0.1-9.5,3.2-18.6,9.4-25.8l3.8-4.4c2.9-3.4,7.3-5.1,11.7-4.7 c12.7,1.1,20,7.2,22.3,38.5c0,0,1.6,45.9-1.5,89.4S116.2,370.1,116.2,370.1z"/><path class="st2" d="M134.9,326c-5.5-6.8-14.6-15.2-20-22.2c-9.8-12.6-20.9-8.3-30.7-20.9l30.2-86.6c3.5-9.6-0.5-20.3-9.4-25.3 l-0.5-0.3c-7.3-4-16.4-1.3-20.3,6c-0.5,1-1,2-1.3,3.1l-15,53.8l-6.3,22.6c-1.8,6.6-5.4,13.7-3.6,20.5 c3.2,11.9,33.6,38.6,36.9,41.6s12.2,13.1,14.8,15.5s4.5,4.8,7.6,4.7c6.8-0.1,12.8,2.5,19.5,2.9c1.3,0.2,2.6,0,3.9-0.4 c1.3-0.4,2.2-1.5,2.5-2.8c0.3-1.8-0.9-3.4-2.1-4.8S137,328.4,134.9,326z"/><path class="st13" d="M196.2,87.5c0,0,13.9-11.4,6-28.4c-8.8-19-25.9-17.2-30.3-17.2C161.5,41.9,196.2,87.5,196.2,87.5z"/><path class="st14" d="M107.4,69.3c0,0-19-0.6-23.9-22.2c-4-17.1,7.8-35.2,25.2-38.3c11-2.1,22.3,2.2,29,11.2 c2.8,3.9,5.1,8.1,6.9,12.5c0.8,2.1,2.4,5,2.4,7.3l-33.5,30.4L107.4,69.3z"/><path class="st13" d="M111.8,69.3c0,0-19-0.6-23.9-22.2c-4-17.1,7.8-35.2,25.2-38.3c11-2.1,22.3,2.3,29.1,11.2 c2.7,3.9,5,8.1,6.8,12.5c0.9,2.1,2.4,5,2.4,7.3l-33.5,30.4L111.8,69.3z"/><path class="st15" d="M111.8,69.3c0,0,1.5,1.8,2.4-0.6c2.1-5.6,6.4-18.2,15.6-23.3c13.1-7.3,19.2-7.8,19.2-7.8 c-1.9-0.5-3.8-0.8-5.8-0.8c-4.8,0-11.6,1.3-19.1,6.3C111.7,51.5,111.8,69.3,111.8,69.3z"/><path class="st13" d="M135.2,125.1c0,0-12.1-5.1-16.5-25.3c0,0-24.5-37.1,16.6-59.5c0,0,27.7-12.1,41,1.6 c0.8,0.9,1.2,3.5,1.5,4.6c2,7.8,1.8,16.4-1.7,23.8c-2.6,5.1-6.5,9.5-11.3,12.7c-3.2,2.1-6.6,3.8-10.1,5.1 c-3.8,1.5-9.6,2-12.7,4.9s-1.4,4.5-0.9,6.6s1.5,4.7,0.9,7.1c-0.1,0.3-0.3,0.8-0.7,0.9s-0.9-0.5-1.1-1c-1.3-2.7-2.3-5.4-3.2-8.2 c-0.7-2.3-2.2-4.4-4.7-4.8c-2.3-0.3-4.5,0.8-5.5,2.9c-2.6,6.3,3,15.4,5.9,16.8c0.2,0,0.4,2.7,1.6,5.7L135.2,125.1z"/><g class="st16"><path class="st0" d="M160.6,52.8c1.1,1.8,1.6,3.8,1.5,5.9c0,1.1-0.2,2.1-0.5,3.1c-0.4,1-0.9,2-1.4,2.9c-1.2,1.8-2.6,3.3-4.3,4.6 c-1.7,1.2-3.4,2.2-5.3,3c-3.7,1.7-7.4,2.8-10.6,4.6c-3.4,1.7-6.1,4.5-7.7,7.9c0.2-2,0.9-4,2-5.7c1.2-1.7,2.6-3.2,4.3-4.4 c3.3-2.5,7.1-3.9,10.6-5.4c1.7-0.7,3.3-1.6,4.8-2.6c1.5-1,2.9-2.2,4.1-3.5c1.1-1.4,1.9-3,2.4-4.7 C160.9,56.6,161,54.7,160.6,52.8z"/></g><g class="st16"><path class="st0" d="M173.6,50.2c1.4-1.2,3-1.9,4.8-2.2c1.9-0.2,3.7,0.2,5.4,1c1.7,0.8,3.2,1.8,4.5,3.2c1.3,1.3,2.4,2.7,3.3,4.2 c1.9,2.9,3.4,6,5.3,8.5c1.9,2.7,4.6,4.7,7.8,5.7c-1.8,0.2-3.6-0.2-5.2-1c-1.6-0.8-3.1-1.9-4.3-3.2c-2.6-2.6-4.3-5.7-6.1-8.4 c-0.8-1.4-1.7-2.7-2.8-3.9c-1-1.2-2.2-2.2-3.5-3.1c-1.3-0.8-2.8-1.4-4.4-1.5C176.8,49.3,175.1,49.6,173.6,50.2z"/></g><path class="st7" d="M72.7,216.5c0,0,6.2,3.6,13.9,7.4s15.3,7.3,15.3,7.3l4.4-12.6l-31-10.5L72.7,216.5z"/><path class="st10" d="M104.2,230.1c-5-2.8-29.1-13-32.2-21c0.4-12.3,7.9-38.4,20.1-40.5C145.5,162.1,110.5,226.9,104.2,230.1z"/><path class="st15" d="M195.3,91.4l2.3,0.2l2.8,0.4l1.8,0.3c0.3,0,0.5,0.3,0.4,0.6c0,0,0,0,0,0c0,0.4,0,0.7,0.1,1.1 c0,0.6,0,1.1,0,1.7c0,0.3-0.1,0.6-0.4,0.8c-0.5,0.1-0.8,0.5-0.9,1c-0.4,1-0.7,2-0.9,3c-0.3,1.1-0.5,2.3-0.8,3.5 c-0.3,1-0.6,2-1.1,2.9c-0.5,1-1.3,1.8-2.3,2.3c-1.4,0.7-2.9,1-4.4,1c-1.5,0.1-2.9,0.1-4.4-0.2l-2.8-0.6c-1.2-0.4-2.4-1.1-3.3-2 c-1.6-1.6-2.9-3.5-3.6-5.7l-1.1-3.3c-0.1-0.7-0.6-1.2-1.3-1.4c-0.9-0.2-1.8,0.2-2.2,1c-0.4,0.7-0.7,1.4-0.9,2.2 c-0.3,1.1-0.8,2.2-1.3,3.2c-0.5,1-1,2-1.7,2.9c-1.5,1.7-3.4,2.9-5.6,3.4l-2.9,0.4c-1.5,0.1-3,0.1-4.5-0.1 c-0.9-0.1-1.8-0.3-2.6-0.6c-0.9-0.4-1.7-1-2.3-1.8c-0.6-0.9-1.1-1.9-1.4-3c-0.4-1.1-0.7-2.3-0.9-3.5c-0.3-1.1-0.5-2.2-0.9-3.4 c-0.1-0.5-0.4-1-0.9-1.2c-0.4-0.2-0.6-0.6-0.6-1c0-1,0-1.9,0.1-2.9c0.1-0.2,0.2-0.3,0.4-0.4h0.5l3.2-0.5l2-0.2l5.7-0.2 c1.4-0.1,2.7,0,4.1,0.1h0.9l2.8,0.4l2.7,0.5c1.2,0.3,2.3,0.7,3.4,1.2c0.5,0.2,1.1,0.3,1.6,0.3c1,0.1,1.9,0,2.9-0.2l2.9-0.9 l2.6-0.7l1.5-0.2l3-0.4h4C192.3,91.3,193.8,91.2,195.3,91.4z M151.4,101c0.1,1.1,0.3,2.2,0.7,3.3c0.2,0.8,0.5,1.5,0.9,2.2 c0.6,0.7,1.3,1.2,2.2,1.5c1.6,0.4,3.3,0.6,4.9,0.5l1.9-0.2c1-0.1,2-0.4,3-0.8c0.7-0.4,1.4-0.9,2-1.5c1.9-2.2,3-5.1,3.2-8 c0.1-0.6,0-1.3-0.2-1.9c-0.2-0.9-0.9-1.5-1.8-1.7c-0.9-0.4-1.8-0.6-2.7-0.7c-1.3-0.3-2.7-0.5-4-0.5h-1.6l-3.2,0.3l-2.8,0.5 c-0.5,0.1-1,0.3-1.4,0.6c-0.3,0.3-0.5,0.6-0.7,1c-0.3,0.6-0.5,1.3-0.4,2c0,0.5-0.1,1-0.1,1.6C151.3,99.8,151.3,100.4,151.4,101z M193.8,108.4c1.3-0.2,2.5-1.1,3-2.3c0.4-1,0.8-2,0.9-3.1c0.4-1.6,0.5-3.2,0.5-4.8c0-0.9-0.2-1.7-0.5-2.5c-0.3-0.8-1-1.5-1.9-1.7 l-2.6-0.5c-1.6-0.2-3.2-0.3-4.8-0.3c-1.3,0-2.6,0.1-3.9,0.4c-0.9,0.1-1.8,0.3-2.6,0.6c-0.8,0.3-1.5,0.7-2,1.4 c-0.2,0.3-0.3,0.7-0.3,1.1c-0.2,0.9-0.1,1.9,0.1,2.8c0.4,2.2,1.3,4.4,2.6,6.2c0.8,1.1,1.9,1.9,3.2,2.3l3.2,0.7h1.6 C191.5,108.7,192.6,108.6,193.8,108.4L193.8,108.4z M199.6,94.2h1.2C200.4,94.1,200,94.1,199.6,94.2L199.6,94.2z"/><polygon class="st15" points="147.2,92.2 140.4,92.4 140.8,96 147.3,96.5"/><path class="st12" d="M99.7,167.5c12.7,1.1,20,7.2,22.3,38.5c0,0,1.6,45.9-1.5,89.4"/></g></g></g><g id="Rulers"><path class="st0" d="M220.7,0C253.5,48.8,275,121.2,275,164c0,69-56,125-125,125S25,233,25,164C25,121.2,46.5,48.8,79.3,0H0v300 h300V0H220.7z"/></g></svg>