<svg xmlns="http://www.w3.org/2000/svg" xmlns:xlink="http://www.w3.org/1999/xlink" width="300" height="300" viewBox="0 0 300 300"><defs><clipPath id="clip-path"><path d="M275,164a125,125,0,0,1-250,0C25,95,81-51,150-51S275,95,275,164Z" fill="none"/></clipPath></defs><title>customer-male-2</title><g id="Background"><rect width="300" height="300" fill="#fff"/><circle cx="150" cy="164" r="125" fill="#ffefcc"/></g><g id="Customers"><g clip-path="url(#clip-path)"><g id="Man_3" data-name="Man 3"><g id="Body"><path d="M247,274.6c-.3-2.4-9.2-17.3-9.5-19.7-2.2-18-14-65.3-25.5-80.2-2.4-3.2-5-6.3-8.8-4.6s-4.8,3.3-6.8,4.8c-4.5,3.3-11.1,7.2-13.5,12.5-4.7,10.4,3.3,20.4,8.4,29,2.6,4.4,5.3,8.9,7.8,13.5s1.7,10.9,2.2,17c.3,4,22.4,46.9,22.6,50.9C234.1,292,238.9,283,247,274.6Z" fill="#e0aa88"/><path d="M220.8,191.2c1,3.2,0-.7.8,2.4.2,1.1-7.4,12.8-10.4,20s-3.3,40.4-4,47.9c-1.9-3.6-13.1-41.6-15.2-45.1-.4-.6-3.7-5.3-3.6-6s5.7-3.5,6.4-3.8C203.3,201.5,211.7,195,220.8,191.2Z" fill="#512712" opacity=".2"/><path d="M177.9,138.8c5.7.2,11.8,1.8,14.6,3.8,13.7,9.7,21.3,32.1,28.3,46.9a4.3,4.3,0,0,1,.5,1.6,4.7,4.7,0,0,1-1.4,2.7,107.6,107.6,0,0,1-13.4,12.6c-3.5,3.7-5.7-2-10.5.1a1.8,1.8,0,0,1-1.2.3c-.6,0-.9-.6-1.2-1-5.4-9.1-9.4-18.8-14.3-28.1s-10-18.1-13.4-28.1C163.1,141.1,170.2,138.5,177.9,138.8Z" fill="#e5e5e5"/><path d="M209.8,310.8c-6.2-14.6-5.3-72.1-5-75.9,1.3-18.7,2.7-37.3,4.1-55.9,1.5-20.8-10.8-35.7-28.6-44.3-8.2-3.9-14.7-6.8-23.8-7.6s-18.8-3.7-27.3-1-32.4,12.7-38,17.8c-13.7,12.4-13.8,32.3-5.8,47.4s10.6,72.2,8.9,86.5-5.2,26.4,1.7,35.6c11.6-1,38.3,9,67.1,9C185,322.4,192.2,321.2,209.8,310.8Z" fill="#efefef"/><path d="M122,175.1c-2.1-.2-2.1-1.9-3.6.2l1.6,3.4-2.1,3c-1.5,2.8-6.5,5.3-8.9,7.2-5.9,4.9-8.9,9.6-10.4,17.2-2.3,11.3-3.6,22.9-5.9,34.4-1.2,6.4,1,33.1,1.3,40,4.1,2,11.6,10.6,15.9,12.2C109.7,268.6,110.7,205.7,122,175.1Z" fill="#cfcfcf"/><path d="M263.6,285.7l.6,2.2a4,4,0,0,1-.2,2.4l-3.4,7.1-.7,7.3-4.4-1.5,1.1-9.8,6.2-7.9C263.1,285.3,263.5,285.3,263.6,285.7Z" fill="#e0aa88"/><path d="M157.4,326.7c-11.2-11.3-22-19.5-33.9-29.5s-22.2-12-28.1-16.2c1-8.1,6.8-41.3,7.8-46.9,1.5-8.3,1.9-16.5,3.8-24.8.8-3.6.8-3.1-2.7-4l-13.7-3.7-23.5-6.2c-2.1,13.9-7.1,81.6-3.2,90s34.4,27.4,49.6,33.8c11.6,4.9,39,24.6,39,24.6Z" fill="#e0aa88"/><path d="M102.3,239c-1.6-4.2-5.5-6.7-8.7-9.9-5.8-5.6-13.7-8.5-19.8-13.6-1.2-1.1-7-5.7-7.9-7.9a4.1,4.1,0,0,1,0-2.2H66a61.4,61.4,0,0,0,9.7,5.4c3.1,1.2,7.4,3.2,10.7,3.1,6.3,1.4,13.7,3.5,20,5Z" fill="#512712" opacity=".2"/><path d="M126.8,156.9c1.1-8.2-28.3-8.1-34.8-13-1.6-1.2-11.4,9.6-19.2,29.7-3.1,8.1-6.1,16.4-7.4,24.9-.9,5.5-.1,7.5,4.5,11.2s11.5,7.1,17.7,9.4c4.6,1.6,10.4,4.3,15.3,4.5s3.1-1.8,4.6-5.9C114.1,198.7,123.9,179.8,126.8,156.9Z" fill="#efefef"/></g><g id="Head"><path d="M126.9,82.9c-3.2-7.1-6.6-14.8-5.1-22.4a21.1,21.1,0,0,1,9.3-13.1,25.4,25.4,0,0,1,15.7-3.6,17.6,17.6,0,0,1,9.5,3.1c4.5,3.1,6.7,8.7,7.5,14.1a42,42,0,0,1-15.9,39.4,23.9,23.9,0,0,1-4.3,2.7c-2.3,1.1-4.8,1.7-7.1,2.8a8.6,8.6,0,0,0-4.5,5.2,55.8,55.8,0,0,0,.9-5.9c.5-2.5,2-5.7,1.6-8.2C133.7,91.8,129.2,87.7,126.9,82.9Z" fill="#7a4c30"/><path d="M188.1,46.9s-37.9-6-64.7,29.1c0,0-13.5-23.3-1.5-39.7a55.8,55.8,0,0,1,10.8-10.9A101.9,101.9,0,0,1,158,11.5s17.7-8,26.7,19.3l1.5,7.1Z" fill="#f6b01f"/><path d="M186.8,37.6l-17.9,5.1-1.3.4-9,2.6c-8.7-16.2-21.2-20.4-25.3-20.7a104,104,0,0,1,25.3-13.9s10.8-4.9,19.8,6a38.9,38.9,0,0,1,6.8,13.3l.9,3.8Z" opacity=".1"/><path d="M138.8,59.1s44.3-37.5,68.1-26.4a9.4,9.4,0,0,1,5.5,9.8c-.9,6.3-5.8,17.4-24.7,34C155.1,105.2,138.8,59.1,138.8,59.1Z" fill="#333"/><path d="M172.3,134.8a22.5,22.5,0,0,1-43.2-12.6c2.3-8.8,2.8-19.7,2.6-29-.1-4.1.4-6.6-.3-10.6,1.1,3.3,4.2,5.6,7.2,7.4,5,3.2,11.1,7.1,17,8.4,4.1.9,8.5,1.3,12.7,2.1l2.9,14.3,1.7,8.7A22.6,22.6,0,0,1,172.3,134.8Z" fill="#e0aa88"/><path d="M172.3,134.8c-23.7,1.6-33.1-21.2-33.1-21.2l32,1.2,1.7,8.7A22.6,22.6,0,0,1,172.3,134.8Z" fill="#512712" opacity=".2"/><path d="M191.8,64.5a29,29,0,0,1-.6,4.1c-.2,1.1-.4,2.1-.5,3.2V72a4.1,4.1,0,0,0-.1,1.1c-.1,1.3-.1,2.5-.1,3.7s0,5.1-.1,7.6a83.8,83.8,0,0,1-3,17.2h0c-2,6.9-4.5,14.6-8.3,20.8a8.1,8.1,0,0,1-2.1,2.4,6.7,6.7,0,0,1-4,.8c-7.7-.2-15.7-2.9-22.6-6.1-5.4-2.5-13-4.1-12.4-9.9a36.9,36.9,0,0,0-1.8-15.9c-.8-2.6-1.9-5.2-2.9-7.8s-2.3-5.3-3.3-7.9-1.3-2.9-1.3-4.3a4,4,0,0,1,.7-2.1,55.4,55.4,0,0,1,4.2-6.5,45.6,45.6,0,0,1,7-8l2.1-1.9A45,45,0,0,1,151,50a61.5,61.5,0,0,1,16.8-5.6,39.5,39.5,0,0,1,8.4-1.1l3.5.2c3.1.5,6.6,1.8,8.7,4.2a11.8,11.8,0,0,1,1.1,1.9C191.3,53.8,192,60,191.8,64.5Z" fill="#e0aa88"/><path d="M188.5,48c-3,.8-6.1,1.6-9.2,2.1a124.9,124.9,0,0,1-16,2c-3.8.2-10.5.9-13.9-1.3A61.9,61.9,0,0,1,167.8,44c2.8-.5,5.7-1.3,8.5-1.3a21.1,21.1,0,0,1,3.5.5c3.1.5,6.6,1.8,8.7,4.2Z" fill="#7a4c30"/><path d="M191.9,64.2c-.2,2.4-.8,4.8-1.1,7.3-1.2-3-.4-6.4-1.7-9.5a23.9,23.9,0,0,0-4.2-6.3c-2.2-2.5-13.2-7.6-12.6-10.8.8-4.8,14.4.4,16.2,2.5C191.9,51.5,192.1,59.2,191.9,64.2Z" fill="#7a4c30"/><path d="M168.8,109.9h.9a9.5,9.5,0,0,0,9.4-9.4V98.9H159.5v1.6A9.4,9.4,0,0,0,168.8,109.9Z" fill="#fff"/><path d="M159.9,91.2c10.4-.3,33.2-3.6,24.4,13.3-6.9-8.5-21.5-6.9-28.6,1.2C153.5,101.5,152.1,91.4,159.9,91.2Z" fill="#7a4c30"/><path d="M130.6,74.2c-.4-.3-2.6-.2-2.7-.8s.7-1.3.9-1.6,1.5-2.8,2.6-4.2a76,76,0,0,1,9.2-10.4,20,20,0,0,1-1.3,6.8c-.6,2-.9,4-1.4,6C136.9,73.5,133.6,73.4,130.6,74.2Z" fill="#7a4c30"/><path d="M130.1,74.1a5.5,5.5,0,0,0-6.1.9c-1.6,1.5-2.2,3.9-2.3,6.2a27.1,27.1,0,0,0,1,8.9,7.7,7.7,0,0,0,2.6,4.2,5.6,5.6,0,0,0,5.5.3,9.9,9.9,0,0,0,4.1-4c2-3.4.5-5.7-.6-9.1S132.8,75.6,130.1,74.1Z" fill="#e0aa88"/><path d="M137.9,68.9a96.9,96.9,0,0,0-.8,17.8,9.6,9.6,0,0,1-1.9,7c-1.1,1.5-1.8-.4-1.8-2s-.1-4.4-.2-6.6c-.2-4-.4-8.7-3.9-11.5C131.9,72.9,135.3,69.6,137.9,68.9Z" fill="#7a4c30"/><ellipse cx="155.2" cy="76.1" rx="2.2" ry="2.9" transform="translate(-6.5 14.9) rotate(-5.4)"/><ellipse cx="181.1" cy="77.1" rx="2.2" ry="2.9" transform="translate(-6.4 17.4) rotate(-5.4)"/><path d="M133,82.3c-.2-2.4-1.5-5.5-4.4-5.6a4.7,4.7,0,0,0-1.7.3,7.7,7.7,0,0,0-4,3.3,6.5,6.5,0,0,0-.6,5.1c.9,2.7,4.3,7,7.6,5.6S133.2,84.7,133,82.3Z" fill="#e0aa88"/><path d="M124.6,84c0-1.7.6-3.6,1.7-4.3a3.2,3.2,0,0,1,1.7-.3c.9,0,2.5.3,2.8,1.7a5.7,5.7,0,0,1-1.3-.1,2.5,2.5,0,0,0-1.2-.1,1.5,1.5,0,0,0-.9,1,1.7,1.7,0,0,0,0,1,4.7,4.7,0,0,0,.2,1.7c.7,2.1,3,1.6,3.1,4.4a2.7,2.7,0,0,1-.4,1.6,1.4,1.4,0,0,1-1,.5C126.9,91.3,124.7,87.2,124.6,84Z" fill="#512712" opacity=".2"/><path d="M152.2,66.2a9.1,9.1,0,0,1,3.7-2.7,13.5,13.5,0,0,1,4.5-1.1,14.4,14.4,0,0,1,4.6.4,9.5,9.5,0,0,1,4.1,2.1l-4.4-.3h-4.2l-4.1.5Z" fill="#7c4c38"/><path d="M175.2,65a6.5,6.5,0,0,1,2.6-1.7,7.3,7.3,0,0,1,3-.3,6,6,0,0,1,2.9.8,4.5,4.5,0,0,1,2.2,2.1l-2.8-.4-2.5-.2H178Z" fill="#7c4c38"/><path d="M166,87.9c8-1.7,10.1.5,7.5-8.7a45.4,45.4,0,0,1-1.3-9" fill="none" stroke="#4a263f" stroke-miterlimit="10" stroke-width=".75"/></g></g></g></g><g id="Rulers"><path d="M220.7,0C253.5,48.8,275,121.2,275,164a125,125,0,0,1-250,0C25,121.2,46.5,48.8,79.3,0H0V300H300V0Z" fill="#fff"/></g></svg>