<svg version="1.1" id="Layer_1" xmlns="http://www.w3.org/2000/svg" xmlns:xlink="http://www.w3.org/1999/xlink" x="0" y="0" viewBox="0 0 300 300" xml:space="preserve" enable-background="new 0 0 300 300"><style type="text/css">.st0{fill:#fff}.st1{fill:#ffefcc}.st3{fill:#e0aa88}.st4{fill:#f6b01f}.st5{opacity:.17;enable-background:new}.st6{fill:#141214}.st7{fill:#291d29}.st8{opacity:.2;fill:#fff;enable-background:new}.st9{fill:#bd8f73}.st10{fill:#222}.st11{fill:#5f2e31}.st12{fill:none;stroke:#4a263f;stroke-width:.75;stroke-miterlimit:10}.st13{fill:#fffffd}.st14,.st15{opacity:.1;fill:#fff;enable-background:new}.st15{fill:#53113f}</style><g id="Background"><rect x="1" y="2" class="st0" width="300" height="300"/><circle class="st1" cx="150" cy="164" r="125"/></g><g id="Customers"><g><g><defs><path id="SVGID_1_" d="M275,164c0,69-56,125-125,125S25,233,25,164S81-51,150-51S275,95,275,164z"/></defs><clipPath id="SVGID_00000119802345878389483980000006973830438071352984_"><use xlink:href="#SVGID_1_" overflow="visible"/></clipPath><g id="Woman_6_1_" clip-path="url(#SVGID_00000119802345878389483980000006973830438071352984_)"><path class="st3" d="M183.8,149.5c-26.3,3.6-8.4,51.6-8.4,51.6l24.3,5.4c-19.8,3.6-9.8,24.1-14.2,35.9 c-3.2,27.5-9.1,74.5-9.8,82.6c11.3-4.1,38-12.7,34.9-19.6C213.5,262.8,228.4,146.9,183.8,149.5z"/><path class="st4" d="M188.4,150.9c-16.7-11.8-57.2-8.2-75.5-2.8c-21.9,4-28.4,34.5-28.2,55.6c0.2,13.7,11.2,21.1,16.4,35 c3.9,2.2,9.4,26.6,11.2,46.8c1.9,21-45.4,53.7-45.4,53.7s36.2,22.3,88.6,22.3s75.3-26.2,75.3-26.2s-39.4-36-34.9-90.9 c2.3-9.9,7.9-19,10.5-28.9C211.1,197.7,204.7,162.4,188.4,150.9z"/><g><path class="st5" d="M119,174.1c6.7,23.1-2.8,46.6-2.5,59.7c0.3,13.4-2.7,12.9-4,52l-9.1-50.5L119,174.1z"/><path class="st3" d="M155.1,313.7c-6.2-6.2-16.2-13.7-22.2-20.2c-11-11.7-22.7-1.3-33.7-12.9c0,0,19.8-83,20.1-93.9 c0.4-10.8-1-31.9-10.4-36.1c-8.2-3.6-18.2,8.1-21.3,18.2c-2.7,9.1-8.6,59-8.6,59c-1.4,7.7-2.7,15.4-4.1,23.2 c-1.2,6.8-4.1,14.3-1.6,20.9c4.3,11.6,37.3,35.4,41,38.1c2.8,2.1,13.5,11.9,16.3,14c2.5,1.8,5,4.4,8.1,4.1 c6.8-0.8,13.1,1.2,19.9,1c1.3,0,2.7-0.2,3.8-0.8c1.2-0.6,2.1-1.7,2.3-3c0.2-1.8-1.3-3.4-2.6-4.6 C159.6,318.3,157.3,316,155.1,313.7z"/></g><g><path class="st3" d="M109.7,148.3c0,0,9.8-2.5,30.7,16.1s41.8,24.1,47.9,8.3c5.3-13.7-8.4-27.1-8.4-27.1s-13.6-9.6-13.3-24.7 S135,92.6,135,92.6S145.4,132.3,109.7,148.3z"/><path class="st6" d="M136.6,36.2c0,0-38.8-1.9-37.8,34.7s20.8,52.8,8.7,61.3c0,0,13.4-2.9,20.1-13.5 c6.7-10.6,5.2-40.6,0.6-48.5c-4.7-7.9,6-20.4,6-20.4L136.6,36.2z"/><path class="st7" d="M112.6,65.4c3.8-16.4,13.7-22.8,23.2-24.9l0.8-4.2c0,0-38.8-1.9-37.8,34.7c0.6,21.5,7.7,36,10.9,46 C111.1,103.8,107.4,87.7,112.6,65.4z"/><path class="st8" d="M100,73.9c-0.8-29.7,24.2-35.9,36.5-37.1l0.1-0.6c0,0-38.8-1.9-37.8,34.7c0.6,21.5,7.7,36,10.9,46 c0-0.2,0-0.3,0-0.5C105.8,106.2,100.5,92.6,100,73.9z"/><path class="st4" d="M119.3,55.9c-0.6-4.3,0.4-8.7,2.5-12.5c2.5-4.5,7.1-10.2,14.4-11.9c12.7-2.9,7.8,10.9,7.8,10.9l-22.9,18.1 C121.1,60.6,119.8,59.9,119.3,55.9z"/><path class="st9" d="M166.8,120.9c0.3-11.6-19-22-27.6-26.2c0.7,1.9,1.2,3.2,1.2,3.2s2.9,30,30.6,38.4 C168.5,132.2,166.7,126.9,166.8,120.9z"/><path class="st3" d="M135,71.3c2.9,7.6,0.9,17,3.8,24.5c2.3,6.1,5.5,12.4,9.9,17.1c6.4,6.8,18.2,18.2,28.5,15.3 c12.2-3.4,19.1-20,21.2-30.5c2.9-14.6,9.8-69.2-18.4-55.8C164.1,49.4,149.4,61.4,135,71.3z"/><ellipse transform="matrix(0.9993 -3.690480e-02 3.690480e-02 0.9993 -2.956 6.0535)" cx="162.5" cy="83.1" rx="1.7" ry="2.7"/><path class="st6" d="M187.6,43.6c13.4,7.5,12.3,31.5,12.2,44.9c3.8-15.7,10.2-41.3-3.2-54.5C185.2,22.9,174.7,32.6,187.6,43.6z"/><path class="st7" d="M153.2,24.7c12.5-3.2,22.9-2,34.1,3.2c4.8,2.3,9.4,7.7,9.3,14.6c-0.5,23.7-35.8,40.7-59.8,40.3 c-0.1,5.2-0.3,10.3-0.4,15.5c-11.6-6.8-16.6-21.1-16.9-34C119.1,43.4,133.7,29.7,153.2,24.7z"/><path class="st3" d="M141.4,81c0,0-7-7.7-11.7-0.7s6.1,21.5,11.6,20.1C146.7,99,141.4,81,141.4,81z"/><path class="st10" d="M158,74.3c0,0-10.6,1.5-10.1,13c0.5,11.6,0,13.3-3.7,16.1c-3.8,2.8-3.1,7-3.1,7s-1.5-2.2-0.8-7.4 s5.8-4.5,3.7-12.2c-1-3.6-4.6-9.9,0.3-17.5C149.1,65.8,158,74.3,158,74.3z"/><path class="st11" d="M184.9,71.8c0,0,6.5-4.2,13.3-1.2C198.3,70.7,188.4,70.4,184.9,71.8z"/><path class="st12" d="M182.6,76.2c0,0-4.1,4-4,7.7c0.2,5.7,6.6,9.5,7.1,13.4c0.4,2.6-4.7,3.7-4.7,3.7"/><path class="st13" d="M168.8,105.5c0,0,6.5-0.3,15.7,0C184.5,105.5,180,119,168.8,105.5z"/><ellipse transform="matrix(0.9993 -3.690480e-02 3.690480e-02 0.9993 -2.9054 6.994)" cx="188" cy="82.2" rx="1.7" ry="2.7"/><circle class="st0" cx="139.6" cy="97.6" r="1.8"/><path class="st14" d="M189.3,38.3c-1,22.4-20.5,33.9-40.8,36.2C178,67.3,185.4,50.8,189.3,38.3z"/><path class="st14" d="M133.1,38.8c0,0-8.3,5.2-9.9,16.5s2.3,20.8,2.3,20.8S120.9,54.8,133.1,38.8z"/><path d="M122.2,79.6c0.6,7.7,6.7,14,5.2,22C132.2,94.1,127.1,85.8,122.2,79.6z"/><path class="st15" d="M134.2,86.9c0.9,1.4,4.1,1.3,3.5,3.6c-0.7,2.6-4.3,0.3-5.3-0.9c-4-4.7,3.1-9.4,4.8-5.7 C135.5,84.4,132.5,83.8,134.2,86.9z"/></g></g></g></g></g><g id="Rulers"><g><path class="st0" d="M220.7,0C253.5,48.8,275,121.2,275,164c0,69-56,125-125,125S25,233,25,164C25,121.2,46.5,48.8,79.3,0H0v300 h300V0H220.7z"/></g></g></svg>